<?xml version="1.0" encoding="UTF-8"?>
<svg id="Layer_2" xmlns="http://www.w3.org/2000/svg" viewBox="0 0 60.37 11.1">
  <defs>
    <style>
      .cls-1 {
        fill: #fff;
      }
    </style>
  </defs>
  <g id="Layer_1-2" data-name="Layer_1">
    <g id="Residential_-_Black">
      <g>
        <rect class="cls-1" y=".05" width="60.37" height="11.05"/>
        <g>
          <path d="M23.36,8.43h.86c.49,0,.75.22.75.6,0,.3-.18.45-.36.51.26.07.44.27.44.57,0,.4-.29.64-.76.64h-.93v-2.32ZM24.19,9.42c.31,0,.48-.12.48-.37s-.17-.37-.48-.37h-.53v.73h.53ZM23.66,10.49h.61c.31,0,.48-.16.48-.4s-.17-.4-.48-.4h-.61v.8Z"/>
          <path d="M26.44,8.43l.9,2.32h-.31l-.24-.61h-1.04l-.23.61h-.31l.9-2.32h.34ZM25.84,9.87h.83l-.42-1.09-.41,1.09Z"/>
          <path d="M28.82,8.43h.33l-.84,1.35v.98h-.31v-.98l-.84-1.35h.34l.66,1.06.66-1.06Z"/>
          <path d="M29.32,10.08c.15.28.41.44.71.44s.53-.15.53-.41c0-.28-.27-.33-.62-.41-.37-.09-.73-.19-.73-.62,0-.41.35-.67.79-.67.4,0,.7.19.83.46l-.24.19c-.12-.22-.3-.38-.6-.38-.28,0-.49.16-.49.38,0,.25.22.3.54.38.38.09.81.17.81.66,0,.43-.38.71-.84.71-.4,0-.79-.2-.94-.51l.24-.19Z"/>
          <path d="M31.53,10.75h-.31v-2.32h.31v2.32Z"/>
          <path d="M32.04,8.43h.74c.71,0,1.15.45,1.15,1.16s-.45,1.16-1.15,1.16h-.74v-2.32ZM32.77,10.48c.53,0,.85-.35.85-.89s-.32-.89-.85-.89h-.43v1.79h.43Z"/>
          <path d="M35.82,8.43v.27h-1.21v.71h1.03v.27h-1.03v.79h1.21v.27h-1.52v-2.32h1.52Z"/>
        </g>
        <g>
          <path d="M4.39.09v1.05H1.48v1.33h2.44v1.04H1.48v1.47h2.91v1.05H.28V.09h4.11Z"/>
          <path d="M5.14.09h1.22v4.9h2.73v1.05h-3.95V.09Z"/>
          <path d="M12.23,6.04l-1.43-4.36v4.36h-1.14V.09h1.69l1.38,4.23L14.09.09h1.67v5.95h-1.16V1.68l-1.43,4.36h-.93Z"/>
          <path d="M21.45,5.06c.65,0,1.12-.41,1.28-1.07l1.14.38c-.35,1.08-1.19,1.76-2.43,1.76-1.61,0-2.78-1.27-2.78-3.07s1.17-3.07,2.78-3.07c1.23,0,2.08.68,2.43,1.76l-1.14.38c-.17-.66-.64-1.07-1.28-1.07-.91,0-1.55.79-1.55,2s.64,2,1.55,2Z"/>
          <path d="M24.45.09h1.22v4.9h2.73v1.05h-3.95V.09Z"/>
          <path d="M33.08.09v1.05h-2.91v1.33h2.44v1.04h-2.44v1.47h2.91v1.05h-4.11V.09h4.11Z"/>
          <path d="M36.98.09l2.23,5.95h-1.23l-.47-1.28h-2.45l-.47,1.28h-1.21L35.59.09h1.39ZM35.43,3.73h1.68l-.85-2.29-.84,2.29Z"/>
          <path d="M44.73,6.04h-1.06l-2.78-4.1v4.1h-1.17V.09h1.23l2.61,3.9V.09h1.17v5.95Z"/>
          <path d="M46.91,6.04h-1.22V.09h1.22v5.95Z"/>
          <path d="M52.87,6.04h-1.06l-2.78-4.1v4.1h-1.17V.09h1.23l2.61,3.9V.09h1.17v5.95Z"/>
          <path d="M57.79,5.47c-.24.37-.8.66-1.55.66-1.56,0-2.71-1.24-2.71-3.03s1.17-3.1,2.79-3.1c1.27,0,2.1.67,2.47,1.74l-1.17.39c-.16-.67-.61-1.06-1.28-1.06-.94,0-1.58.8-1.58,2s.65,2.02,1.6,2.02c.77,0,1.28-.54,1.33-1.27h-1.44v-1.04h2.63v3.25h-1.09v-.57Z"/>
        </g>
      </g>
    </g>
  </g>
</svg>