<?xml version="1.0" encoding="UTF-8"?>
<svg id="Layer_2" xmlns="http://www.w3.org/2000/svg" viewBox="0 0 48.59 9.58">
  <defs>
    <style>
      .cls-1 {
        fill: #fff;
      }
    </style>
  </defs>
  <g id="Layer_1-2" data-name="Layer_1">
    <g id="Residential_-_Black">
      <g>
        <rect class="cls-1" width="48.59" height="9.58"/>
        <g>
          <path d="M19.06,7.42h.69c.4,0,.61.17.61.49,0,.24-.15.36-.29.41.21.06.35.22.35.46,0,.33-.24.52-.62.52h-.75v-1.87ZM19.73,8.23c.25,0,.39-.1.39-.29s-.14-.3-.39-.3h-.43v.59h.43ZM19.3,9.08h.49c.25,0,.39-.13.39-.32s-.14-.32-.39-.32h-.49v.64Z"/>
          <path d="M21.54,7.42l.72,1.87h-.25l-.19-.49h-.84l-.19.49h-.25l.72-1.87h.28ZM21.07,8.58h.67l-.34-.88-.33.88Z"/>
          <path d="M23.47,7.42h.27l-.68,1.08v.79h-.25v-.79l-.68-1.08h.27l.54.86.53-.86Z"/>
          <path d="M23.88,8.75c.12.22.33.36.57.36s.43-.12.43-.33c0-.23-.22-.27-.5-.33-.29-.07-.59-.15-.59-.5,0-.33.28-.54.64-.54.33,0,.56.16.67.37l-.19.15c-.1-.18-.25-.3-.49-.3-.23,0-.39.12-.39.31,0,.2.17.24.44.3.31.07.65.14.65.53,0,.35-.31.57-.68.57-.32,0-.63-.16-.76-.41l.2-.16Z"/>
          <path d="M25.66,9.3h-.25v-1.87h.25v1.87Z"/>
          <path d="M26.07,7.42h.59c.57,0,.93.37.93.94s-.36.94-.93.94h-.59v-1.87ZM26.67,9.08c.43,0,.68-.28.68-.72s-.26-.72-.69-.72h-.35v1.44h.35Z"/>
          <path d="M29.12,7.42v.22h-.98v.58h.83v.22h-.83v.64h.98v.22h-1.22v-1.87h1.22Z"/>
        </g>
        <g>
          <path d="M3.73.68v.85H1.38v1.07h1.97v.84h-1.97v1.19h2.35v.85H.41V.68h3.32Z"/>
          <path d="M4.34.68h.98v3.96h2.21v.85h-3.2V.68Z"/>
          <path d="M10.07,5.49l-1.16-3.52v3.52h-.92V.68h1.37l1.11,3.42,1.11-3.42h1.35v4.81h-.94V1.97l-1.16,3.52h-.75Z"/>
          <path d="M17.52,4.7c.52,0,.9-.33,1.04-.86l.92.31c-.28.87-.96,1.42-1.96,1.42-1.3,0-2.24-1.02-2.24-2.48s.94-2.48,2.24-2.48c1,0,1.68.55,1.96,1.42l-.92.31c-.13-.54-.52-.86-1.04-.86-.74,0-1.25.64-1.25,1.61s.52,1.61,1.25,1.61Z"/>
          <path d="M19.94.68h.98v3.96h2.21v.85h-3.2V.68Z"/>
          <path d="M26.91.68v.85h-2.35v1.07h1.97v.84h-1.97v1.19h2.35v.85h-3.32V.68h3.32Z"/>
          <path d="M30.07.68l1.8,4.81h-1l-.38-1.03h-1.98l-.38,1.03h-.98l1.79-4.81h1.13ZM28.82,3.62h1.36l-.68-1.85-.68,1.85Z"/>
          <path d="M36.33,5.49h-.86l-2.25-3.32v3.32h-.94V.68h1l2.11,3.15V.68h.94v4.81Z"/>
          <path d="M38.09,5.49h-.98V.68h.98v4.81Z"/>
          <path d="M42.91,5.49h-.86l-2.25-3.32v3.32h-.94V.68h1l2.11,3.15V.68h.94v4.81Z"/>
          <path d="M46.89,5.03c-.19.3-.65.54-1.25.54-1.26,0-2.19-1-2.19-2.45s.94-2.51,2.26-2.51c1.02,0,1.69.54,2,1.41l-.94.31c-.13-.54-.5-.86-1.04-.86-.76,0-1.28.64-1.28,1.62s.52,1.63,1.29,1.63c.62,0,1.04-.44,1.08-1.02h-1.17v-.84h2.13v2.63h-.88v-.46Z"/>
        </g>
      </g>
    </g>
  </g>
</svg>