<?xml version="1.0" encoding="UTF-8"?><svg id="Layer_2" xmlns="http://www.w3.org/2000/svg" viewBox="0 0 35.58 6.55"><g id="Logo_-_Sets"><g id="Residential"><g id="Residential_-_Black"><path d="M14.01,5.13h.52c.3,0,.46.13.46.37,0,.18-.11.27-.22.31.16.04.26.17.26.34,0,.24-.18.39-.46.39h-.56v-1.4ZM14.52,5.73c.19,0,.29-.07.29-.22s-.1-.22-.29-.22h-.32v.44h.32ZM14.19,6.37h.37c.19,0,.29-.1.29-.24s-.1-.24-.29-.24h-.37v.48Z"/><path d="M15.88,5.13l.54,1.4h-.19l-.14-.37h-.63l-.14.37h-.19l.54-1.4h.21ZM15.52,6h.5l-.25-.66-.25.66Z"/><path d="M17.32,5.13h.2l-.51.81v.59h-.19v-.59l-.51-.81h.2l.4.64.4-.64Z"/><path d="M17.63,6.12c.09.17.25.27.43.27s.32-.09.32-.25c0-.17-.16-.2-.38-.25-.22-.05-.44-.11-.44-.38,0-.25.21-.41.48-.41.24,0,.42.12.5.28l-.14.11c-.07-.13-.18-.23-.37-.23-.17,0-.29.09-.29.23,0,.15.13.18.33.23.23.05.49.1.49.4,0,.26-.23.43-.51.43-.24,0-.47-.12-.57-.31l.15-.12Z"/><path d="M18.97,6.53h-.19v-1.4h.19v1.4Z"/><path d="M19.28,5.13h.45c.43,0,.7.27.7.7s-.27.7-.7.7h-.45v-1.4ZM19.73,6.37c.32,0,.51-.21.51-.54s-.19-.54-.51-.54h-.26v1.08h.26Z"/><path d="M21.57,5.13v.16h-.73v.43h.62v.16h-.62v.48h.73v.16h-.92v-1.4h.92Z"/><path d="M2.5.06v.64H.73v.81h1.48v.63H.73v.9h1.77v.64H0V.06h2.5Z"/><path d="M2.95.06h.74v2.98h1.66v.64h-2.4V.06Z"/><path d="M7.26,3.67l-.87-2.65v2.65h-.69V.06h1.03l.84,2.57L8.39.06h1.01v3.62h-.71V1.02l-.87,2.65h-.56Z"/><path d="M12.86,3.08c.39,0,.68-.25.78-.65l.69.23c-.21.65-.73,1.07-1.48,1.07-.98,0-1.69-.77-1.69-1.86s.71-1.86,1.69-1.86c.75,0,1.26.41,1.48,1.07l-.69.23c-.1-.4-.39-.65-.78-.65-.55,0-.94.48-.94,1.21s.39,1.21.94,1.21Z"/><path d="M14.67.06h.74v2.98h1.66v.64h-2.4V.06Z"/><path d="M19.91.06v.64h-1.77v.81h1.48v.63h-1.48v.9h1.77v.64h-2.5V.06h2.5Z"/><path d="M22.29.06l1.35,3.62h-.75l-.29-.78h-1.49l-.29.78h-.74L21.44.06h.85ZM21.34,2.27h1.02l-.51-1.39-.51,1.39Z"/><path d="M26.99,3.67h-.64l-1.69-2.49v2.49h-.71V.06h.75l1.59,2.37V.06h.71v3.62Z"/><path d="M28.31,3.67h-.74V.06h.74v3.62Z"/><path d="M31.93,3.67h-.64l-1.69-2.49v2.49h-.71V.06h.75l1.59,2.37V.06h.71v3.62Z"/><path d="M34.92,3.32c-.15.23-.49.4-.94.4-.95,0-1.65-.75-1.65-1.84s.71-1.88,1.7-1.88c.77,0,1.27.41,1.5,1.06l-.71.24c-.1-.41-.37-.64-.78-.64-.57,0-.96.48-.96,1.22s.39,1.23.97,1.23c.47,0,.78-.33.81-.77h-.88v-.63h1.6v1.97h-.66v-.35Z"/></g></g></g></svg>